<svg width="24" height="23" viewBox="0 0 24 23" fill="none" xmlns="http://www.w3.org/2000/svg">
<g id="Group 4930">
<path id="path30" fill-rule="evenodd" clip-rule="evenodd" d="M6.73253 22.66H3.44324C2.05463 22.66 0.813594 21.7017 1.71859 20.4962L3.96954 17.4985H10.6192L6.73253 22.66Z" fill="#1B539F"/>
<path id="path32" fill-rule="evenodd" clip-rule="evenodd" d="M17.1499 0.0327148H20.4392C21.8278 0.0327148 23.0688 0.991082 22.1638 2.19834L18.5136 7.01304L11.8105 7.1909L17.1499 0.0327148Z" fill="#F16221"/>
<path id="path34" d="M4.82422 16.4293L13.3284 5.15869H19.9229L11.4028 16.4293H4.82422Z" fill="#1B539F"/>
<path id="path36" d="M0.0995349 5.06723C0.025634 4.97016 -0.00913651 4.84893 0.00205693 4.72745C0.0132504 4.60597 0.0696141 4.49315 0.160008 4.41122C1.19845 3.1035 2.50478 2.03326 3.99125 1.2724C5.47771 0.51153 7.10985 0.0776441 8.77792 0H15.8259L11.9392 5.16511H9.11751C8.88405 5.177 8.65065 5.14034 8.43204 5.05757C8.21343 4.97479 8.01435 4.84768 7.84731 4.68415C7.68027 4.52062 7.54892 4.32428 7.46152 4.10748C7.37413 3.89067 7.33259 3.65811 7.33952 3.42445V3.30356C7.33952 2.9373 7.06925 2.44124 6.15359 2.41457C6.00423 2.41457 5.32682 2.44828 5.16502 2.47317C3.51747 2.81555 2.01918 3.66705 0.881855 4.90727C0.759173 5.01928 0.330672 5.26287 0.103089 5.06907" fill="#1B539F"/>
<path id="path38" d="M23.9021 17.5868C23.976 17.6839 24.0108 17.8051 23.9996 17.9266C23.9884 18.048 23.932 18.1609 23.8417 18.2428C22.8032 19.5506 21.4969 20.6208 20.0104 21.3817C18.524 22.1425 16.8918 22.5764 15.2238 22.6541H8.17578L12.0625 17.489H14.8842C15.1176 17.4771 15.351 17.5137 15.5696 17.5964C15.7882 17.6792 15.9873 17.8064 16.1543 17.9699C16.3214 18.1334 16.4527 18.3298 16.5401 18.5466C16.6275 18.7634 16.6691 18.996 16.6621 19.2296V19.3506C16.6621 19.7168 16.9324 20.2129 17.848 20.2396C17.9974 20.2396 18.6748 20.2057 18.8366 20.1808C20.4842 19.8385 21.9825 18.987 23.1198 17.7468C23.2425 17.6348 23.671 17.3912 23.8986 17.585" fill="#1B539F"/>
</g>
</svg>
